<svg xmlns="http://www.w3.org/2000/svg" width="1000" height="1000" viewBox="0 0 1000 1000">
  <defs>
    <style>
      .cls-1, .cls-2 {
        fill: #4b4b4b;
        fill-rule: evenodd;
      }

      .cls-1, .cls-3 {
        stroke: #1fb8ff;
      }

      .cls-1 {
        stroke-linecap: round;
        stroke-width: 27.778px;
        stroke-dasharray: 2.778 19.444 2.778 55.556;
      }

      .cls-2 {
        stroke: #fdfdfd;
        stroke-width: 19.444px;
      }

      .cls-3 {
        fill: none;
        stroke-width: 14.333px;
      }
    </style>
  </defs>
  <path id="Tvar_1" data-name="Tvar 1" class="cls-1" d="M551,281"/>
  <path id="Tvar_9" data-name="Tvar 9" class="cls-2" d="M715.147,632.759L562.722,499.876l112.8-98.34,39.97-34.846c2.605,3.675,4.506,7.757,4.506,12.393V619.917C720,624.748,717.957,628.988,715.147,632.759Zm-49.39-239.738-51.449,44.854-98.457,85.834-17.283,15.067-166.325-145-27.625-24.083-12.693-11.066a29.745,29.745,0,0,1,13.7-3.625h386.75a29.864,29.864,0,0,1,13.184,3.322l-13.9,12.121ZM294.851,378.205L433.983,499.5,282.158,631.86c-2.405-3.572-4.158-7.5-4.158-11.943V379.083c0-4.441,1.753-8.371,4.158-11.943l12.693,11.065h0Zm148.9,129.81,5.831,5.083,2.082,1.815,18.992,16.558,27.625,24.083,1.152-1,0.288,0.251,25.9-22.579,27.337-23.832,152.089,132.59A30.023,30.023,0,0,1,692.375,644H305.625a29.745,29.745,0,0,1-13.7-3.625Z"/>
  <circle id="Elipsa_1" data-name="Elipsa 1" class="cls-3" cx="500" cy="500" r="400"/>
</svg>
