<svg xmlns="http://www.w3.org/2000/svg" width="1000" height="1000" viewBox="0 0 1000 1000">
  <defs>
    <style>
      .cls-1 {
        fill: #4b4b4b;
        stroke-linecap: round;
        stroke-width: 27.778px;
        stroke-dasharray: 2.778 19.444 2.778 55.556;
      }

      .cls-1, .cls-2 {
        stroke: #1fb8ff;
      }

      .cls-1, .cls-5 {
        fill-rule: evenodd;
      }

      .cls-2, .cls-5 {
        fill: none;
      }

      .cls-2 {
        stroke-width: 14.333px;
      }

      .cls-3 {
        font-size: 91.667px;
      }

      .cls-3, .cls-4 {
        fill: #fff;
        font-family: "BankGothic Lt BT";
        font-weight: 300;
      }

      .cls-4 {
        font-size: 87.5px;
      }

      .cls-5 {
        stroke: #fff;
        stroke-width: 22.222px;
      }
    </style>
  </defs>
  <path id="Tvar_1" data-name="Tvar 1" class="cls-1" d="M551,281"/>
  <circle id="Elipsa_1" data-name="Elipsa 1" class="cls-2" cx="500" cy="500" r="400"/>
  <text id="ODHADY_" data-name="ODHADY " class="cls-3" x="291.586" y="255.466">ODHADY</text>
  <text id="NEMOVITOSTÍ" class="cls-4" x="165.625" y="343.016">NEMOVITOSTÍ</text>
  <path id="odhadyGOOD" class="cls-5" d="M537.75,774V736.1h-77.5V774H344V432.9h58.125V395h193.75v37.9H654V774H537.75ZM479.625,489.75h-38.75v37.9h38.75v-37.9Zm0,75.8h-38.75v37.9h38.75v-37.9Zm0,75.8h-38.75v37.9h38.75v-37.9Zm77.5-151.6h-38.75v37.9h38.75v-37.9Zm0,75.8h-38.75v37.9h38.75v-37.9Zm0,75.8h-38.75v37.9h38.75v-37.9Z"/>
</svg>
