<svg xmlns="http://www.w3.org/2000/svg" width="1000" height="1000" viewBox="0 0 1000 1000">
  <defs>
    <style>
      .cls-1 {
        fill: #4b4b4b;
        stroke-linecap: round;
        stroke-width: 27.778px;
        stroke-dasharray: 2.778 19.444 2.778 55.556;
      }

      .cls-1, .cls-2 {
        stroke: #1fb8ff;
      }

      .cls-1, .cls-4 {
        fill-rule: evenodd;
      }

      .cls-2, .cls-4 {
        fill: none;
      }

      .cls-2 {
        stroke-width: 14.333px;
      }

      .cls-3 {
        font-size: 91.667px;
        fill: #fff;
        font-family: "BankGothic Lt BT";
        font-weight: 300;
      }

      .cls-4 {
        stroke: #fff;
        stroke-width: 19.444px;
      }
    </style>
  </defs>
  <path id="Tvar_1" data-name="Tvar 1" class="cls-1" d="M551,281"/>
  <circle id="Elipsa_1" data-name="Elipsa 1" class="cls-2" cx="500" cy="500" r="400"/>
  <text id="CENÍK" class="cls-3" x="344.063" y="279.105">CENÍK</text>
  <path id="Cenik" class="cls-4" d="M502,765c-112.114,0-203-23.473-203-52.429V660.143c0-4.554,2.953-8.895,7.178-13.107,4.694,4.679,12.305,9.025,21.459,13.107h0.7v0.333C363.51,675.9,427.631,686.357,502,686.357S640.49,675.9,675.66,660.476v-0.333h0.7c9.154-4.082,16.765-8.428,21.459-13.107,4.225,4.212,7.178,8.553,7.178,13.107v52.428C705,741.527,614.114,765,502,765Zm0-104.857c-112.114,0-203-23.473-203-52.429V555.286c0-4.554,2.953-8.895,7.178-13.107,4.694,4.679,12.305,9.025,21.459,13.107h0.7v0.333C363.51,571.045,427.631,581.5,502,581.5s138.49-10.455,173.66-25.881v-0.333h0.7c9.154-4.082,16.765-8.428,21.459-13.107,4.225,4.212,7.178,8.553,7.178,13.107v52.428C705,636.67,614.114,660.143,502,660.143Zm0-104.857c-112.114,0-203-23.473-203-52.429V450.429C299,421.473,389.886,398,502,398s203,23.473,203,52.429v52.428C705,531.813,614.114,555.286,502,555.286Z"/>
</svg>
