<?xml version='1.0' encoding='iso-8859-1'?>
<svg version="1.1" xmlns="http://www.w3.org/2000/svg" viewBox="0 0 470 470" xmlns:xlink="http://www.w3.org/1999/xlink" enable-background="new 0 0 470 470" fill="#3498DB">
  <g>
    <path d="M405.522,0H64.478c-4.143,0-7.5,3.357-7.5,7.5v455c0,4.143,3.357,7.5,7.5,7.5h341.045c4.143,0,7.5-3.357,7.5-7.5V7.5   C413.022,3.357,409.665,0,405.522,0z M71.978,15h326.045v268.478H234c-4.143,0-7.5,3.357-7.5,7.5v129.096   c0,4.143,3.357,7.5,7.5,7.5s7.5-3.357,7.5-7.5V298.478h145.916L230.894,455H71.978V15z M252.107,455l145.915-145.915V455H252.107z"/>
    <path d="m375.522,50h-281.044c-4.143,0-7.5,3.357-7.5,7.5s3.357,7.5 7.5,7.5h281.045c4.143,0 7.5-3.357 7.5-7.5s-3.358-7.5-7.501-7.5z"/>
  </g>
</svg>
