<?xml version="1.0" encoding="iso-8859-1"?>
<!-- Generator: Adobe Illustrator 19.0.0, SVG Export Plug-In . SVG Version: 6.00 Build 0)  -->
<svg version="1.1" id="Capa_1" xmlns="http://www.w3.org/2000/svg" xmlns:xlink="http://www.w3.org/1999/xlink" x="0px" y="0px"
	 viewBox="0 0 58.009 58.009" style="enable-background:new 0 0 58.009 58.009;" xml:space="preserve" fill="#3498DB">
<g>
	<g>
		<path d="M4,51.504h50c0.552,0,1-0.447,1-1v-9c0-0.553-0.448-1-1-1h-6v-26c0-0.553-0.448-1-1-1H30v-4h5c0.552,0,1-0.447,1-1v-3
			c0-0.553-0.448-1-1-1h-5v-2h-2v3v3v5H11c-0.552,0-1,0.447-1,1v26H4c-0.552,0-1,0.447-1,1v9C3,51.057,3.448,51.504,4,51.504z
			 M34,6.504v1h-4v-1H34z M12,15.504h16h2h16v25h-3v-23h-2v23h-3v-23h-2v23h-3v-23h-2v23h-4v-23h-2v23h-3v-23h-2v23h-3v-23h-2v23h-3
			V15.504z M5,42.504h6h4v0.021h2v-0.021h3v0.021h2v-0.021h3v0.021h2v-0.021h4v0.021h2v-0.021h3v0.021h2v-0.021h3v0.021h2v-0.021h4
			h6v7h-3v-5h-2v5h-3v-5h-2v5h-3v-5h-2v5h-3v-5h-2v5h-3v-5h-2v5h-3v-5h-2v5h-3v-5h-2v5h-3v-5h-2v5h-3v-5H8v5H5V42.504z"/>
		<rect y="53.504" width="58.009" height="2"/>
	</g>
</g>
<g>
</g>
<g>
</g>
<g>
</g>
<g>
</g>
<g>
</g>
<g>
</g>
<g>
</g>
<g>
</g>
<g>
</g>
<g>
</g>
<g>
</g>
<g>
</g>
<g>
</g>
<g>
</g>
<g>
</g>
</svg>
