<?xml version="1.0" encoding="iso-8859-1"?>
<!-- Generator: Adobe Illustrator 16.0.0, SVG Export Plug-In . SVG Version: 6.00 Build 0)  -->
<!DOCTYPE svg PUBLIC "-//W3C//DTD SVG 1.1//EN" "http://www.w3.org/Graphics/SVG/1.1/DTD/svg11.dtd">
<svg version="1.1" id="Capa_1" xmlns="http://www.w3.org/2000/svg" xmlns:xlink="http://www.w3.org/1999/xlink" x="0px" y="0px"
	 viewBox="0 0 24.578 24.578" style="enable-background:new 0 0 24.578 24.578;" fill="#3498DB"
	 xml:space="preserve">
<g>
	<path d="M24.212,22.374l-0.689-4.178c-0.185-1.123-1.196-2.195-2.306-2.441l-4.652-1.041c0.644-0.844,1.164-1.827,1.551-2.815
		c0.688-0.237,1.382-0.84,1.59-1.631c0.277-1.052,0.012-1.994-0.639-2.41l0.02-1.51c0.045-3.63-2.691-6.3-6.506-6.347
		s-6.615,2.554-6.66,6.185L5.9,7.696c-0.66,0.397-0.95,1.336-0.698,2.394c0.189,0.799,0.874,1.42,1.557,1.674
		c0.355,0.994,0.845,1.99,1.462,2.848l-4.687,0.928c-1.115,0.221-2.154,1.269-2.366,2.383l-0.793,4.16
		c-0.111,0.584,0.021,1.142,0.372,1.569c0.351,0.431,0.871,0.671,1.464,0.679l20.113,0.248h0.026c0.586,0,1.104-0.229,1.46-0.649
		C24.165,23.505,24.309,22.954,24.212,22.374z M11.928,17.806l-0.59,2.342l-3.846-4.479l1.374-0.271
		c0.689,0.74,1.501,1.304,2.427,1.562l-0.14,0.123L11.928,17.806z M13.322,20.267l-0.555-2.451l0.792-0.704l-0.132-0.125
		c0.931-0.232,1.758-0.775,2.468-1.5l1.354,0.303L13.322,20.267z M7.48,10.931c-0.365,0.072-1.199-0.395-1.357-1.062
		c-0.162-0.68,0.008-1.311,0.378-1.41c0.109-0.026,0.223-0.004,0.335,0.06l0.029-2.32c0.041-3.28,2.588-5.284,5.699-5.245
		c3.113,0.036,5.61,2.104,5.569,5.385l-0.029,2.319c0.113-0.059,0.229-0.079,0.337-0.049c0.368,0.106,0.521,0.744,0.345,1.418
		c-0.174,0.658-1.014,1.104-1.375,1.029c-0.374,1.09-1.017,2.401-1.892,3.425c-0.112,0.134-0.23,0.261-0.354,0.384
		c-0.131,0.132-0.268,0.254-0.405,0.368c-0.648,0.539-1.394,0.893-2.222,0.925c-0.054,0.002-0.107,0.011-0.162,0.011
		c-0.061,0-0.119-0.013-0.179-0.018c-0.833-0.058-1.568-0.424-2.201-0.978c-0.137-0.118-0.27-0.243-0.397-0.379
		c-0.118-0.125-0.232-0.256-0.342-0.394C8.422,13.368,7.828,12.049,7.48,10.931z M22.332,23.675l-3.887-0.049l0.025-2.109
		c0.003-0.248-0.196-0.453-0.445-0.455c-0.275-0.006-0.451,0.195-0.455,0.443l-0.026,2.11L7.006,23.483l0.026-2.109
		c0.003-0.248-0.196-0.451-0.445-0.455c-0.25,0.012-0.452,0.196-0.456,0.444l-0.026,2.108l-3.887-0.048
		c-0.323-0.004-0.6-0.127-0.779-0.348c-0.179-0.22-0.245-0.515-0.185-0.832l0.793-4.16c0.144-0.754,0.903-1.521,1.657-1.668
		l2.769-0.549l5.549,6.459c0.085,0.1,0.171,0.172,0.341,0.157c0.129,0,0.253-0.057,0.338-0.153l5.543-6.32l2.77,0.619
		c0.75,0.168,1.489,0.951,1.614,1.709l0.69,4.181c0.052,0.315-0.02,0.606-0.201,0.821c-0.182,0.216-0.456,0.332-0.773,0.332v0.447
		L22.332,23.675z"/>
</g>
<g>
</g>
<g>
</g>
<g>
</g>
<g>
</g>
<g>
</g>
<g>
</g>
<g>
</g>
<g>
</g>
<g>
</g>
<g>
</g>
<g>
</g>
<g>
</g>
<g>
</g>
<g>
</g>
<g>
</g>
</svg>
